# xmcd
#
# Track frame offsets:
#	150
#	13765
#	29303
#	44434
#	65181
#	79477
#	95047
#	113957
#	128861
#	146396
#	161075
#	176928
#
# Disc length: 2489 seconds
#
# Revision: 0
# Processed by: cddbd v1.5.2PL0 Copyright (c) Steve Scherf et al.
# Submitted via: dBpowerAMP V4.0
#
DISCID=b209b70c
DTITLE=Jennifer J. Lee - I'm Not Homeless
DYEAR=2001
DGENRE=Country
TTITLE0=East to Tennessee
TTITLE1=You Take the Lead
TTITLE2=Convince Me
TTITLE3=Would You Give me Away
TTITLE4=One False Move
TTITLE5=The Band Played On
TTITLE6=I'm Not Homeless
TTITLE7=You Need a Man
TTITLE8=Am I Dreaming?
TTITLE9=Diamond in the Sky
TTITLE10=Friday's Child
TTITLE11=Happy Trails
EXTD=
EXTT0=
EXTT1=
EXTT2=
EXTT3=
EXTT4=
EXTT5=
EXTT6=
EXTT7=
EXTT8=
EXTT9=
EXTT10=
EXTT11=
PLAYORDER=
